<svg id="Layer_1" data-name="Layer 1" xmlns="http://www.w3.org/2000/svg" viewBox="0 0 399.33 116.85"><defs><style>.cls-1{fill:#fff;}</style></defs><path class="cls-1" d="M38.49,78.51,53.25,39.87h8.88l14.7,38.64h-8.4l-3.66-9.3H50.55L47,78.51ZM51.75,63H63.57L57.63,47.43Z"/><path class="cls-1" d="M82.47,91.47V50.07h7l.42,2.64A14,14,0,0,1,94,50.31a14.73,14.73,0,0,1,5.22-.84q6.24,0,9.63,3.39t3.39,11.07q0,7.68-3.63,11.43t-9.87,3.75A14.77,14.77,0,0,1,90.57,77V91.47Zm14.22-18.3A6.72,6.72,0,0,0,102.15,71Q104,68.73,104,64q0-4.56-1.68-6.57t-5.4-2A8.77,8.77,0,0,0,90.57,58V71a12.42,12.42,0,0,0,2.67,1.56A8.81,8.81,0,0,0,96.69,73.17Z"/><path class="cls-1" d="M127.59,79.11a39.24,39.24,0,0,1-6.06-.45,23.75,23.75,0,0,1-4.62-1.11V70.83a23.31,23.31,0,0,0,4.74,1.29,29.08,29.08,0,0,0,4.86.45,17,17,0,0,0,4.23-.36A1.55,1.55,0,0,0,132,70.59q0-1.44-1.89-2.1t-5.61-1.86a17.46,17.46,0,0,1-6-3.18,7,7,0,0,1-2.1-5.52,7.32,7.32,0,0,1,3-6.27q3-2.19,9.57-2.19a30.29,30.29,0,0,1,5,.39,26.49,26.49,0,0,1,4,.93v6.66a14.77,14.77,0,0,0-3.72-1.17,21.45,21.45,0,0,0-3.9-.39,18.67,18.67,0,0,0-4.11.36q-1.53.36-1.53,1.56t1.65,1.86q1.65.54,5.13,1.62a22.34,22.34,0,0,1,5.34,2.22,6.9,6.9,0,0,1,2.7,2.85,9.6,9.6,0,0,1,.78,4.11Q140.19,79.11,127.59,79.11Z"/><path class="cls-1" d="M156.21,79.11q-4.92,0-7.29-2.58a10,10,0,0,1-2.37-7V56.31h-4V50.07h4V44l8.1-2.4v8.52h7.2l-.48,6.24h-6.72V69a4,4,0,0,0,1.08,3.21,5.32,5.32,0,0,0,3.36.87,11,11,0,0,0,3.48-.6V78a13.81,13.81,0,0,1-2.88.81A20.5,20.5,0,0,1,156.21,79.11Z"/><path class="cls-1" d="M166.71,78.51V50.07h7.5l.36,2.94a23.74,23.74,0,0,1,4.77-2.19A28.21,28.21,0,0,1,185,49.47v6.12q-1.62.24-3.54.72t-3.66,1.08a19,19,0,0,0-2.94,1.26V78.51Z"/><path class="cls-1" d="M196.23,79.11a12.58,12.58,0,0,1-5-1,8.74,8.74,0,0,1-3.72-2.94,8.13,8.13,0,0,1-1.41-4.89,8.37,8.37,0,0,1,3-6.72q3-2.52,8.79-2.52h8.4v-.78a4.32,4.32,0,0,0-1.47-3.72q-1.47-1.08-5.91-1.08a29.4,29.4,0,0,0-9.36,1.5v-5.7A25.66,25.66,0,0,1,194.34,50a35.31,35.31,0,0,1,6.21-.51q6.42,0,9.93,2.61T214,60.45V78.51h-7l-.42-2.58a11.9,11.9,0,0,1-4.14,2.34A19.38,19.38,0,0,1,196.23,79.11Zm2.22-5.34a11.23,11.23,0,0,0,4.68-.9,8.54,8.54,0,0,0,3.12-2.28v-4.5H198q-4.74,0-4.74,3.9T198.45,73.77Z"/><path class="cls-1" d="M235.05,79.11q-7.62,0-11.67-3.78t-4-11q0-7.5,4.35-11.16t11.61-3.66a27.43,27.43,0,0,1,5.16.42,17.82,17.82,0,0,1,4.2,1.38v5.82A15.45,15.45,0,0,0,241.17,56a20.52,20.52,0,0,0-4.26-.42q-4.56,0-7,1.89t-2.4,6.87q0,4.56,2.19,6.66t7.11,2.1a20,20,0,0,0,4.11-.42,16.22,16.22,0,0,0,3.75-1.26v6A24.24,24.24,0,0,1,235.05,79.11Z"/><path class="cls-1" d="M264.33,79.11q-7.62,0-11.67-3.78t-4-11q0-7.5,4.35-11.16t11.61-3.66a27.43,27.43,0,0,1,5.16.42,17.82,17.82,0,0,1,4.2,1.38v5.82A15.45,15.45,0,0,0,270.45,56a20.52,20.52,0,0,0-4.26-.42q-4.56,0-7,1.89t-2.4,6.87q0,4.56,2.19,6.66t7.11,2.1a20,20,0,0,0,4.11-.42A16.22,16.22,0,0,0,274,71.37v6A24.24,24.24,0,0,1,264.33,79.11Z"/><path class="cls-1" d="M281.73,77.51V57.07a1,1,0,0,0-1-1h-2.14a1,1,0,0,1-1-1.12l.48-4a1,1,0,0,1,1-.88h9.76a1,1,0,0,1,1,1V77.51a1,1,0,0,1-1,1h-6.1A1,1,0,0,1,281.73,77.51Zm-.66-35.66v-.36a3,3,0,0,1,3-3h2.81a3,3,0,0,1,3,3v.36a3,3,0,0,1-3,3h-2.81A3,3,0,0,1,281.07,41.85Z"/><path class="cls-1" d="M311,79.11q-8,0-11.7-3.87t-3.72-10.95q0-7.08,3.75-11T311,49.47q8,0,11.73,3.87t3.75,11q0,7.08-3.72,10.95T311,79.11Zm0-6.9q3.9,0,5.58-1.77t1.68-6.15q0-4.38-1.68-6.15T311,56.37q-3.84,0-5.52,1.77t-1.68,6.15q0,4.38,1.68,6.15T311,72.21Z"/><path class="cls-1" d="M332.07,78.51V50.07h7.5l.29,2.7a17.21,17.21,0,0,1,4.42-2.31,15.92,15.92,0,0,1,5.61-1q5.63,0,8.22,2.64c1.71,1.76,2.58,4.48,2.58,8.16V78.51h-8.1V60.69c0-1.92-.39-3.28-1.18-4.08s-2.22-1.2-4.34-1.2a9.11,9.11,0,0,0-3.75.84,10.5,10.5,0,0,0-3.16,2.1V78.51Z"/></svg>